<svg width="420" height="420" viewBox="0 0 420 420" fill="none" xmlns="http://www.w3.org/2000/svg">
<rect width="420" height="420" fill="#EFEFEF"/>
<path d="M95.5997 91.5999C99.8184 87.3864 105.537 85.0197 111.5 85.0197C117.462 85.0197 123.181 87.3864 127.4 91.5999L209 173.17L290.6 91.5999C292.688 89.5119 295.167 87.8556 297.895 86.7256C300.623 85.5955 303.547 85.0139 306.5 85.0139C309.453 85.0139 312.377 85.5955 315.105 86.7256C317.833 87.8556 320.312 89.5119 322.4 91.5999C324.488 93.6879 326.144 96.1668 327.274 98.8949C328.404 101.623 328.986 104.547 328.986 107.5C328.986 110.453 328.404 113.377 327.274 116.105C326.144 118.833 324.488 121.312 322.4 123.4L240.83 205L322.4 286.6C326.617 290.817 328.986 296.536 328.986 302.5C328.986 308.464 326.617 314.183 322.4 318.4C318.183 322.617 312.463 324.986 306.5 324.986C300.536 324.986 294.817 322.617 290.6 318.4L209 236.83L127.4 318.4C123.183 322.617 117.463 324.986 111.5 324.986C105.536 324.986 99.8166 322.617 95.5997 318.4C91.3827 314.183 89.0137 308.464 89.0137 302.5C89.0137 296.536 91.3827 290.817 95.5997 286.6L177.17 205L95.5997 123.4C91.3862 119.181 89.0195 113.462 89.0195 107.5C89.0195 101.537 91.3862 95.8187 95.5997 91.5999Z" fill="#F24E1E"/>
</svg>
