<svg width="135" height="61" viewBox="0 0 135 61" fill="none" xmlns="http://www.w3.org/2000/svg">
<rect width="135" height="61" rx="20" fill="#1E64E5"/>
<rect x="1.5" y="1.5" width="132" height="58" rx="18.5" stroke="#1E64E5" stroke-width="3"/>
<g filter="url(#filter0_d_149_270)">
<path d="M42.7177 31.1593L16.4354 46.3976L16.2666 16.2109L42.7177 31.1593Z" fill="white"/>
</g>
<path d="M58.7206 16.2091L58.8837 45.3619L55.3231 45.3815L55.1602 16.2287L58.7206 16.2091ZM65.8596 16.1699L70.1093 16.1465L80.2369 40.2907L80.5815 40.2887L90.4386 16.0348L94.6883 16.0114L94.8514 45.1642L91.5205 45.1825L91.3966 23.0332L91.1095 23.0348L82.045 45.2346L78.8289 45.2522L69.5167 23.1535L69.2295 23.1551L69.3534 45.3043L66.0226 45.3226L65.8596 16.1699ZM126.718 30.4121C126.735 33.4869 126.19 36.147 125.082 38.3929C123.975 40.6385 122.449 42.3742 120.503 43.5996C118.557 44.825 116.33 45.4446 113.823 45.4584C111.315 45.4723 109.081 44.8772 107.122 43.6732C105.163 42.4692 103.617 40.7506 102.485 38.5171C101.352 36.2837 100.777 33.6296 100.76 30.5549C100.743 27.4801 101.288 24.8198 102.395 22.5742C103.503 20.3283 105.029 18.5928 106.975 17.3674C108.921 16.1419 111.147 15.5223 113.655 15.5085C116.163 15.4947 118.396 16.0898 120.356 17.2938C122.315 18.4978 123.861 20.2164 124.993 22.4499C126.126 24.6834 126.7 27.3374 126.718 30.4121ZM123.272 30.4311C123.258 27.9068 122.82 25.7788 121.958 24.0467C121.106 22.3147 119.955 21.0066 118.505 20.1225C117.064 19.2383 115.454 18.8012 113.674 18.811C111.893 18.8207 110.283 19.2756 108.843 20.1756C107.412 21.0757 106.276 22.3962 105.434 24.1375C104.601 25.8788 104.192 28.0115 104.206 30.5359C104.22 33.0602 104.653 35.1884 105.505 36.9203C106.367 38.6524 107.518 39.9604 108.958 40.8445C110.409 41.7287 112.024 42.1658 113.804 42.156C115.584 42.1463 117.19 41.6914 118.621 40.7914C120.061 39.8914 121.197 38.5708 122.03 36.8295C122.872 35.0882 123.286 32.9553 123.272 30.4311Z" fill="white"/>
<defs>
<filter id="filter0_d_149_270" x="15.1666" y="16.2109" width="28.6512" height="33.2865" filterUnits="userSpaceOnUse" color-interpolation-filters="sRGB">
<feFlood flood-opacity="0" result="BackgroundImageFix"/>
<feColorMatrix in="SourceAlpha" type="matrix" values="0 0 0 0 0 0 0 0 0 0 0 0 0 0 0 0 0 0 127 0" result="hardAlpha"/>
<feOffset dy="2"/>
<feGaussianBlur stdDeviation="0.55"/>
<feComposite in2="hardAlpha" operator="out"/>
<feColorMatrix type="matrix" values="0 0 0 0 0 0 0 0 0 0 0 0 0 0 0 0 0 0 0.75 0"/>
<feBlend mode="normal" in2="BackgroundImageFix" result="effect1_dropShadow_149_270"/>
<feBlend mode="normal" in="SourceGraphic" in2="effect1_dropShadow_149_270" result="shape"/>
</filter>
</defs>
</svg>
