<svg width="63" height="28" viewBox="0 0 63 28" fill="none" xmlns="http://www.w3.org/2000/svg">
<path d="M2.56179 0.818181V27H0.963779V0.818181H2.56179ZM10.1396 0.818181H11.8782L21.9648 24.6989H22.1438L32.2305 0.818181H33.9691V27H32.435V4.61506H32.2816L22.8086 27H21.3001L11.8271 4.61506H11.6737V27H10.1396V0.818181ZM62.3594 13.9091C62.3594 16.6108 61.8906 18.9716 60.9531 20.9915C60.0156 23.0028 58.7116 24.5668 57.0412 25.6832C55.3793 26.7997 53.4616 27.358 51.2884 27.358C49.1065 27.358 47.1804 26.7997 45.5099 25.6832C43.848 24.5582 42.5483 22.9901 41.6108 20.9787C40.6733 18.9588 40.2045 16.6023 40.2045 13.9091C40.2045 11.2074 40.6733 8.85085 41.6108 6.83949C42.5568 4.82812 43.8608 3.2642 45.5227 2.14773C47.1847 1.02273 49.1065 0.460226 51.2884 0.460226C53.4616 0.460226 55.3793 1.01846 57.0412 2.13494C58.7116 3.25142 60.0156 4.8196 60.9531 6.83949C61.8906 8.85085 62.3594 11.2074 62.3594 13.9091ZM60.7997 13.9091C60.7997 11.4801 60.3906 9.375 59.5724 7.59375C58.7628 5.8125 57.642 4.43608 56.2102 3.46449C54.7784 2.48437 53.1378 1.99432 51.2884 1.99432C49.4389 1.99432 47.7983 2.48011 46.3665 3.4517C44.9347 4.41477 43.8097 5.79119 42.9915 7.58097C42.1818 9.36222 41.777 11.4716 41.777 13.9091C41.777 16.321 42.1776 18.4219 42.9787 20.2116C43.7884 21.9929 44.9091 23.3736 46.3409 24.3537C47.7727 25.3338 49.4219 25.8239 51.2884 25.8239C53.1378 25.8239 54.7784 25.3381 56.2102 24.3665C57.642 23.3864 58.7628 22.0057 59.5724 20.2244C60.3906 18.4432 60.7997 16.3381 60.7997 13.9091Z" fill="white"/>
</svg>
