<svg width="156" height="52" viewBox="0 0 156 52" fill="none" xmlns="http://www.w3.org/2000/svg">
<path d="M56.8221 10.4545V41H54.9577V10.4545H56.8221ZM65.6628 10.4545H67.6912L79.459 38.3153H79.6678L91.4355 10.4545H93.464V41H91.6742V14.8842H91.4952L80.4434 41H78.6834L67.6316 14.8842H67.4526V41H65.6628V10.4545ZM126.586 25.7273C126.586 28.8793 126.039 31.6335 124.945 33.9901C123.852 36.3366 122.33 38.1612 120.381 39.4638C118.442 40.7663 116.205 41.4176 113.67 41.4176C111.124 41.4176 108.877 40.7663 106.928 39.4638C104.989 38.1513 103.473 36.3217 102.379 33.9751C101.286 31.6186 100.739 28.8693 100.739 25.7273C100.739 22.5753 101.286 19.826 102.379 17.4794C103.483 15.1328 105.004 13.3082 106.943 12.0057C108.882 10.6932 111.124 10.0369 113.67 10.0369C116.205 10.0369 118.442 10.6882 120.381 11.9908C122.33 13.2933 123.852 15.1229 124.945 17.4794C126.039 19.826 126.586 22.5753 126.586 25.7273ZM124.766 25.7273C124.766 22.8935 124.289 20.4375 123.335 18.3594C122.39 16.2812 121.082 14.6754 119.412 13.5419C117.741 12.3984 115.827 11.8267 113.67 11.8267C111.512 11.8267 109.598 12.3935 107.928 13.527C106.257 14.6506 104.945 16.2564 103.99 18.3445C103.045 20.4226 102.573 22.8835 102.573 25.7273C102.573 28.5412 103.04 30.9922 103.975 33.0803C104.92 35.1584 106.227 36.7692 107.898 37.9126C109.568 39.0561 111.492 39.6278 113.67 39.6278C115.827 39.6278 117.741 39.0611 119.412 37.9276C121.082 36.7841 122.39 35.1733 123.335 33.0952C124.289 31.017 124.766 28.5611 124.766 25.7273Z" fill="white"/>
<path d="M16.4545 11.2321C16.4545 10.4623 17.2878 9.98113 17.9545 10.366L43.4545 25.0885C44.1211 25.4734 44.1211 26.4356 43.4545 26.8205L17.9545 41.5429C17.2878 41.9278 16.4545 41.4467 16.4545 40.6769L16.4545 11.2321Z" fill="white"/>
</svg>
